<svg width="5" height="9" viewBox="0 0 5 9" fill="none" xmlns="http://www.w3.org/2000/svg">
<path d="M0.643573 1.68124C0.976558 1.68124 1.2465 1.41681 1.2465 1.09062C1.2465 0.764429 0.976558 0.5 0.643573 0.5C0.310587 0.5 0.0406494 0.764429 0.0406494 1.09062C0.0406494 1.41681 0.310587 1.68124 0.643573 1.68124Z" fill="#5A3F99"/>
<path d="M1.8373 2.8746C2.17028 2.8746 2.44022 2.61017 2.44022 2.28398C2.44022 1.95779 2.17028 1.69336 1.8373 1.69336C1.50431 1.69336 1.23438 1.95779 1.23438 2.28398C1.23438 2.61017 1.50431 2.8746 1.8373 2.8746Z" fill="#5A3F99"/>
<path d="M1.8373 7.57723C2.17028 7.57723 2.44022 7.3128 2.44022 6.98661C2.44022 6.66043 2.17028 6.396 1.8373 6.396C1.50431 6.396 1.23438 6.66043 1.23438 6.98661C1.23438 7.3128 1.50431 7.57723 1.8373 7.57723Z" fill="#5A3F99"/>
<path d="M3.08119 4.04354C3.41418 4.04354 3.68412 3.77911 3.68412 3.45292C3.68412 3.12673 3.41418 2.8623 3.08119 2.8623C2.74821 2.8623 2.47827 3.12673 2.47827 3.45292C2.47827 3.77911 2.74821 4.04354 3.08119 4.04354Z" fill="#5A3F99"/>
<path d="M3.08124 6.40641C3.41424 6.40641 3.6842 6.14197 3.6842 5.81576C3.6842 5.48954 3.41424 5.2251 3.08124 5.2251C2.74823 5.2251 2.47827 5.48954 2.47827 5.81576C2.47827 6.14197 2.74823 6.40641 3.08124 6.40641Z" fill="#5A3F99"/>
<path d="M0.643613 8.79558C0.976621 8.79558 1.24658 8.53113 1.24658 8.20492C1.24658 7.8787 0.976621 7.61426 0.643613 7.61426C0.310606 7.61426 0.0406494 7.8787 0.0406494 8.20492C0.0406494 8.53113 0.310606 8.79558 0.643613 8.79558Z" fill="#5A3F99"/>
<path d="M4.27639 5.21298C4.60937 5.21298 4.87931 4.94855 4.87931 4.62236C4.87931 4.29617 4.60937 4.03174 4.27639 4.03174C3.9434 4.03174 3.67346 4.29617 3.67346 4.62236C3.67346 4.94855 3.9434 5.21298 4.27639 5.21298Z" fill="#5A3F99"/>
</svg>
