<svg width="5" height="9" viewBox="0 0 5 9" fill="none" xmlns="http://www.w3.org/2000/svg">
<path d="M0.643451 1.68124C0.976436 1.68124 1.24637 1.41681 1.24637 1.09062C1.24637 0.764429 0.976436 0.5 0.643451 0.5C0.310465 0.5 0.0405273 0.764429 0.0405273 1.09062C0.0405273 1.41681 0.310465 1.68124 0.643451 1.68124Z" fill="#00A8CB"/>
<path d="M1.8373 2.8746C2.17028 2.8746 2.44022 2.61017 2.44022 2.28398C2.44022 1.95779 2.17028 1.69336 1.8373 1.69336C1.50431 1.69336 1.23438 1.95779 1.23438 2.28398C1.23438 2.61017 1.50431 2.8746 1.8373 2.8746Z" fill="#00A8CB"/>
<path d="M1.8373 7.57723C2.17028 7.57723 2.44022 7.3128 2.44022 6.98661C2.44022 6.66043 2.17028 6.396 1.8373 6.396C1.50431 6.396 1.23438 6.66043 1.23438 6.98661C1.23438 7.3128 1.50431 7.57723 1.8373 7.57723Z" fill="#00A8CB"/>
<path d="M3.08144 4.04354C3.41442 4.04354 3.68436 3.77911 3.68436 3.45292C3.68436 3.12673 3.41442 2.8623 3.08144 2.8623C2.74845 2.8623 2.47852 3.12673 2.47852 3.45292C2.47852 3.77911 2.74845 4.04354 3.08144 4.04354Z" fill="#00A8CB"/>
<path d="M3.08099 6.40641C3.414 6.40641 3.68396 6.14197 3.68396 5.81576C3.68396 5.48954 3.414 5.2251 3.08099 5.2251C2.74798 5.2251 2.47803 5.48954 2.47803 5.81576C2.47803 6.14197 2.74798 6.40641 3.08099 6.40641Z" fill="#00A8CB"/>
<path d="M0.643491 8.79558C0.976499 8.79558 1.24646 8.53113 1.24646 8.20492C1.24646 7.8787 0.976499 7.61426 0.643491 7.61426C0.310484 7.61426 0.0405273 7.8787 0.0405273 8.20492C0.0405273 8.53113 0.310484 8.79558 0.643491 8.79558Z" fill="#00A8CB"/>
<path d="M4.27626 5.21298C4.60925 5.21298 4.87919 4.94855 4.87919 4.62236C4.87919 4.29617 4.60925 4.03174 4.27626 4.03174C3.94328 4.03174 3.67334 4.29617 3.67334 4.62236C3.67334 4.94855 3.94328 5.21298 4.27626 5.21298Z" fill="#00A8CB"/>
</svg>
