<svg width="9" height="5" viewBox="0 0 9 5" fill="none" xmlns="http://www.w3.org/2000/svg">
<path d="M1.68124 0.643451C1.68124 0.976436 1.41681 1.24637 1.09062 1.24637C0.764429 1.24637 0.5 0.976436 0.5 0.643451C0.5 0.310465 0.764429 0.0405273 1.09062 0.0405273C1.41681 0.0405273 1.68124 0.310465 1.68124 0.643451Z" fill="white"/>
<path d="M2.87435 1.8373C2.87435 2.17028 2.60992 2.44022 2.28373 2.44022C1.95754 2.44022 1.69312 2.17028 1.69312 1.8373C1.69312 1.50431 1.95754 1.23438 2.28373 1.23438C2.60992 1.23438 2.87435 1.50431 2.87435 1.8373Z" fill="white"/>
<path d="M7.57699 1.8373C7.57699 2.17028 7.31256 2.44022 6.98637 2.44022C6.66018 2.44022 6.39575 2.17028 6.39575 1.8373C6.39575 1.50431 6.66018 1.23438 6.98637 1.23438C7.31256 1.23438 7.57699 1.50431 7.57699 1.8373Z" fill="white"/>
<path d="M4.04379 3.08144C4.04379 3.41442 3.77936 3.68436 3.45317 3.68436C3.12698 3.68436 2.86255 3.41442 2.86255 3.08144C2.86255 2.74845 3.12698 2.47852 3.45317 2.47852C3.77936 2.47852 4.04379 2.74845 4.04379 3.08144Z" fill="white"/>
<path d="M6.40617 3.08099C6.40617 3.414 6.14172 3.68396 5.81551 3.68396C5.4893 3.68396 5.22485 3.414 5.22485 3.08099C5.22485 2.74798 5.4893 2.47803 5.81551 2.47803C6.14172 2.47803 6.40617 2.74798 6.40617 3.08099Z" fill="white"/>
<path d="M8.79558 0.643491C8.79558 0.976499 8.53113 1.24646 8.20492 1.24646C7.8787 1.24646 7.61426 0.976499 7.61426 0.643491C7.61426 0.310484 7.8787 0.0405273 8.20492 0.0405273C8.53113 0.0405273 8.79558 0.310484 8.79558 0.643491Z" fill="white"/>
<path d="M5.21298 4.27626C5.21298 4.60925 4.94855 4.87919 4.62236 4.87919C4.29617 4.87919 4.03174 4.60925 4.03174 4.27626C4.03174 3.94328 4.29617 3.67334 4.62236 3.67334C4.94855 3.67334 5.21298 3.94328 5.21298 4.27626Z" fill="white"/>
</svg>
