<svg width="10" height="9" viewBox="0 0 10 9" fill="none" xmlns="http://www.w3.org/2000/svg">
<path d="M8.71251 1.03086C8.71251 1.25285 8.88879 1.4328 9.10625 1.4328C9.32371 1.4328 9.5 1.25285 9.5 1.03086C9.5 0.808865 9.32371 0.628906 9.10625 0.628906C8.88879 0.628906 8.71251 0.808865 8.71251 1.03086Z" fill="white"/>
<path d="M7.51939 2.24912C7.51939 2.47111 7.69568 2.65107 7.91314 2.65107C8.1306 2.65107 8.30688 2.47111 8.30688 2.24912C8.30688 2.02713 8.1306 1.84717 7.91314 1.84717C7.69568 1.84717 7.51939 2.02713 7.51939 2.24912Z" fill="white"/>
<path d="M8.71251 2.24912C8.71251 2.47111 8.88879 2.65107 9.10625 2.65107C9.32371 2.65107 9.5 2.47111 9.5 2.24912C9.5 2.02713 9.32371 1.84717 9.10625 1.84717C8.88879 1.84717 8.71251 2.02713 8.71251 2.24912Z" fill="white"/>
<path d="M7.51939 3.44248C7.51939 3.66447 7.69568 3.84443 7.91314 3.84443C8.1306 3.84443 8.30688 3.66447 8.30688 3.44248C8.30688 3.22049 8.1306 3.04053 7.91314 3.04053C7.69568 3.04053 7.51939 3.22049 7.51939 3.44248Z" fill="white"/>
<path d="M6.35008 3.44248C6.35008 3.66447 6.52637 3.84443 6.74383 3.84443C6.96129 3.84443 7.13757 3.66447 7.13757 3.44248C7.13757 3.22049 6.96129 3.04053 6.74383 3.04053C6.52637 3.04053 6.35008 3.22049 6.35008 3.44248Z" fill="white"/>
<path d="M8.71251 3.44248C8.71251 3.66447 8.88879 3.84443 9.10625 3.84443C9.32371 3.84443 9.5 3.66447 9.5 3.44248C9.5 3.22049 9.32371 3.04053 9.10625 3.04053C8.88879 3.04053 8.71251 3.22049 8.71251 3.44248Z" fill="white"/>
<path d="M7.51939 4.63632C7.51939 4.85831 7.69568 5.03827 7.91314 5.03827C8.1306 5.03827 8.30688 4.85831 8.30688 4.63632C8.30688 4.41433 8.1306 4.23438 7.91314 4.23438C7.69568 4.23438 7.51939 4.41433 7.51939 4.63632Z" fill="white"/>
<path d="M6.35008 4.63632C6.35008 4.85831 6.52637 5.03827 6.74383 5.03827C6.96129 5.03827 7.13757 4.85831 7.13757 4.63632C7.13757 4.41433 6.96129 4.23438 6.74383 4.23438C6.52637 4.23438 6.35008 4.41433 6.35008 4.63632Z" fill="white"/>
<path d="M5.18065 4.63632C5.18065 4.85831 5.35693 5.03827 5.57439 5.03827C5.79185 5.03827 5.96814 4.85831 5.96814 4.63632C5.96814 4.41433 5.79185 4.23438 5.57439 4.23438C5.35693 4.23438 5.18065 4.41433 5.18065 4.63632Z" fill="white"/>
<path d="M3.98748 3.4425C3.98748 3.66451 4.16378 3.84448 4.38125 3.84448C4.59873 3.84448 4.77502 3.66451 4.77502 3.4425C4.77502 3.2205 4.59873 3.04053 4.38125 3.04053C4.16378 3.04053 3.98748 3.2205 3.98748 3.4425Z" fill="white"/>
<path d="M3.98748 4.63635C3.98748 4.85836 4.16378 5.03833 4.38125 5.03833C4.59873 5.03833 4.77502 4.85836 4.77502 4.63635C4.77502 4.41435 4.59873 4.23438 4.38125 4.23438C4.16378 4.23438 3.98748 4.41435 3.98748 4.63635Z" fill="white"/>
<path d="M2.81676 2.24912C2.81676 2.47111 2.99304 2.65107 3.2105 2.65107C3.42796 2.65107 3.60425 2.47111 3.60425 2.24912C3.60425 2.02713 3.42796 1.84717 3.2105 1.84717C2.99304 1.84717 2.81676 2.02713 2.81676 2.24912Z" fill="white"/>
<path d="M2.81676 3.44248C2.81676 3.66447 2.99304 3.84443 3.2105 3.84443C3.42796 3.84443 3.60425 3.66447 3.60425 3.44248C3.60425 3.22049 3.42796 3.04053 3.2105 3.04053C2.99304 3.04053 2.81676 3.22049 2.81676 3.44248Z" fill="white"/>
<path d="M2.81676 4.63632C2.81676 4.85831 2.99304 5.03827 3.2105 5.03827C3.42796 5.03827 3.60425 4.85831 3.60425 4.63632C3.60425 4.41433 3.42796 4.23438 3.2105 4.23438C2.99304 4.23438 2.81676 4.41433 2.81676 4.63632Z" fill="white"/>
<path d="M6.35008 5.88046C6.35008 6.10245 6.52637 6.28241 6.74383 6.28241C6.96129 6.28241 7.13757 6.10245 7.13757 5.88046C7.13757 5.65847 6.96129 5.47852 6.74383 5.47852C6.52637 5.47852 6.35008 5.65847 6.35008 5.88046Z" fill="white"/>
<path d="M5.18065 5.88046C5.18065 6.10245 5.35693 6.28241 5.57439 6.28241C5.79185 6.28241 5.96814 6.10245 5.96814 5.88046C5.96814 5.65847 5.79185 5.47852 5.57439 5.47852C5.35693 5.47852 5.18065 5.65847 5.18065 5.88046Z" fill="white"/>
<path d="M3.98748 5.88C3.98748 6.10201 4.16378 6.28198 4.38125 6.28198C4.59873 6.28198 4.77502 6.10201 4.77502 5.88C4.77502 5.658 4.59873 5.47803 4.38125 5.47803C4.16378 5.47803 3.98748 5.658 3.98748 5.88Z" fill="white"/>
<path d="M1.5982 1.03088C1.5982 1.25289 1.7745 1.43286 1.99197 1.43286C2.20944 1.43286 2.38574 1.25289 2.38574 1.03088C2.38574 0.808877 2.20944 0.628906 1.99197 0.628906C1.7745 0.628906 1.5982 0.808877 1.5982 1.03088Z" fill="white"/>
<path d="M1.5982 2.24914C1.5982 2.47115 1.7745 2.65112 1.99197 2.65112C2.20944 2.65112 2.38574 2.47115 2.38574 2.24914C2.38574 2.02714 2.20944 1.84717 1.99197 1.84717C1.7745 1.84717 1.5982 2.02714 1.5982 2.24914Z" fill="white"/>
<path d="M1.5982 3.4425C1.5982 3.66451 1.7745 3.84448 1.99197 3.84448C2.20944 3.84448 2.38574 3.66451 2.38574 3.4425C2.38574 3.2205 2.20944 3.04053 1.99197 3.04053C1.7745 3.04053 1.5982 3.2205 1.5982 3.4425Z" fill="white"/>
<path d="M5.18065 7.07529C5.18065 7.29728 5.35693 7.47724 5.57439 7.47724C5.79185 7.47724 5.96814 7.29728 5.96814 7.07529C5.96814 6.8533 5.79185 6.67334 5.57439 6.67334C5.35693 6.67334 5.18065 6.8533 5.18065 7.07529Z" fill="white"/>
</svg>
