<svg width="15" height="12" viewBox="0 0 15 12" fill="none" xmlns="http://www.w3.org/2000/svg">
<path d="M13.6556 11.7817C13.9927 11.7817 14.2847 11.6704 14.533 11.4506L10.2848 7.20232C10.1829 7.2753 10.0841 7.34627 9.99081 7.41376C9.6729 7.64799 9.41487 7.83076 9.21674 7.96173C9.01864 8.093 8.75506 8.22681 8.42604 8.36341C8.09681 8.50018 7.79008 8.56835 7.50555 8.56835H7.49722H7.48888C7.20432 8.56835 6.8976 8.50021 6.56839 8.36341C6.23918 8.22681 5.9756 8.093 5.77769 7.96173C5.57958 7.83076 5.3217 7.64801 5.00362 7.41376C4.91498 7.34878 4.81668 7.27748 4.7104 7.20117L0.461426 11.4506C0.709674 11.6704 1.00192 11.7817 1.33894 11.7817H13.6556Z" fill="white"/>
<path d="M0.8452 4.52737C0.527314 4.31544 0.245417 4.07272 0 3.79932V10.2628L3.74431 6.51848C2.99524 5.99552 2.03009 5.33258 0.8452 4.52737Z" fill="white"/>
<path d="M14.1578 4.52737C13.0181 5.29877 12.0494 5.96286 11.2517 6.51998L14.9945 10.263V3.79932C14.7545 4.06722 14.4757 4.30978 14.1578 4.52737Z" fill="white"/>
<path d="M13.6556 0.000488281H1.33895C0.909255 0.000488281 0.578901 0.145588 0.347476 0.435488C0.115861 0.725525 0.000244141 1.08825 0.000244141 1.52325C0.000244141 1.87462 0.153674 2.25533 0.460398 2.66551C0.767123 3.07552 1.0935 3.39757 1.43937 3.63182C1.62898 3.76579 2.20078 4.1633 3.15476 4.82423C3.66974 5.1811 4.11759 5.49215 4.50245 5.76057C4.83049 5.98914 5.11339 6.18708 5.34697 6.35134C5.37378 6.37015 5.41595 6.40032 5.47192 6.44033C5.53222 6.48365 5.60853 6.53861 5.70267 6.60659C5.88395 6.73769 6.03455 6.84367 6.15449 6.92464C6.27427 7.00562 6.4194 7.09609 6.58965 7.19654C6.75977 7.29686 6.92023 7.37229 7.07083 7.42247C7.22145 7.47261 7.36089 7.49777 7.48916 7.49777H7.49749H7.50583C7.63407 7.49777 7.77354 7.47261 7.92419 7.42247C8.07476 7.37229 8.23508 7.29702 8.40533 7.19654C8.57543 7.09609 8.72036 7.00543 8.84053 6.92464C8.96047 6.84367 9.11107 6.73772 9.29238 6.60659C9.38632 6.53861 9.46263 6.48362 9.52293 6.44047C9.57893 6.40029 9.62107 6.37032 9.64805 6.35134C9.83001 6.22473 10.1136 6.0276 10.4948 5.76288C11.1885 5.2809 12.2101 4.57149 13.564 3.63182C13.9712 3.34742 14.3114 3.00422 14.5848 2.6027C14.8577 2.20119 14.9945 1.78002 14.9945 1.33933C14.9945 0.971133 14.8618 0.656078 14.5971 0.393673C14.3321 0.131595 14.0182 0.000488281 13.6556 0.000488281Z" fill="white"/>
</svg>
