<svg width="18" height="12" viewBox="0 0 18 12" fill="none" xmlns="http://www.w3.org/2000/svg">
<path fill-rule="evenodd" clip-rule="evenodd" d="M17.696 1.0001C17.696 1.35908 17.3538 1.6501 16.9318 1.6501H1.58953C1.16747 1.6501 0.825317 1.35908 0.825317 1.0001C0.825317 0.641113 1.16747 0.350098 1.58953 0.350098L16.9318 0.350098C17.3538 0.350098 17.696 0.641113 17.696 1.0001Z" fill="white"/>
<path fill-rule="evenodd" clip-rule="evenodd" d="M17.696 6.0001C17.696 6.35908 17.3538 6.6501 16.9318 6.6501H1.58953C1.16747 6.6501 0.825317 6.35908 0.825317 6.0001C0.825317 5.64111 1.16747 5.3501 1.58953 5.3501L16.9318 5.3501C17.3538 5.3501 17.696 5.64111 17.696 6.0001Z" fill="white"/>
<path fill-rule="evenodd" clip-rule="evenodd" d="M17.696 11.0001C17.696 11.3591 17.3538 11.6501 16.9318 11.6501H1.58953C1.16747 11.6501 0.825317 11.3591 0.825317 11.0001C0.825317 10.6411 1.16747 10.3501 1.58953 10.3501L16.9318 10.3501C17.3538 10.3501 17.696 10.6411 17.696 11.0001Z" fill="white"/>
</svg>
