<svg width="13" height="13" viewBox="0 0 13 13" fill="none" xmlns="http://www.w3.org/2000/svg">
<path fill-rule="evenodd" clip-rule="evenodd" d="M9.67928 8.96463L12.8519 12.1372C13.0494 12.3346 13.0494 12.6546 12.852 12.8519C12.7532 12.9507 12.6238 13 12.4945 13C12.3652 13 12.2358 12.9507 12.1372 12.8519L8.96446 9.67931C8.01614 10.4679 6.79832 10.943 5.47153 10.943C2.45451 10.943 0 8.48857 0 5.47168C0 2.45458 2.45451 0 5.47153 0C8.48848 0 10.943 2.45458 10.943 5.47168C10.943 6.79854 10.4679 8.0163 9.67928 8.96463ZM5.47153 1.01087C3.0119 1.01087 1.01086 3.01197 1.01086 5.47168C1.01086 7.93118 3.0119 9.93209 5.47153 9.93209C7.93109 9.93209 9.93206 7.93118 9.93206 5.47168C9.93206 3.01197 7.93109 1.01087 5.47153 1.01087Z" fill="white"/>
</svg>
