<svg width="16" height="16" viewBox="0 0 16 16" fill="none" xmlns="http://www.w3.org/2000/svg">
<path fill-rule="evenodd" clip-rule="evenodd" d="M11.4238 10.6542L14.8405 14.0708C15.0532 14.2834 15.0532 14.628 14.8406 14.8406C14.7343 14.9469 14.5949 15 14.4556 15C14.3164 15 14.177 14.9469 14.0708 14.8406L10.654 11.4239C9.63276 12.2731 8.32127 12.7847 6.89241 12.7847C3.64332 12.7847 1 10.1415 1 6.89258C1 3.6434 3.64332 1 6.89241 1C10.1414 1 12.7848 3.6434 12.7848 6.89258C12.7848 8.32151 12.2731 9.63294 11.4238 10.6542ZM6.89241 2.08862C4.24358 2.08862 2.08862 4.24367 2.08862 6.89258C2.08862 9.54127 4.24358 11.6961 6.89241 11.6961C9.54117 11.6961 11.6961 9.54127 11.6961 6.89258C11.6961 4.24367 9.54117 2.08862 6.89241 2.08862Z" fill="#00A8CB"/>
<path d="M14.8405 14.0708L14.7344 14.1769L14.7345 14.1769L14.8405 14.0708ZM11.4238 10.6542L11.3085 10.5583L11.221 10.6635L11.3178 10.7603L11.4238 10.6542ZM14.8406 14.8406L14.9466 14.9466H14.9466L14.8406 14.8406ZM14.0708 14.8406L14.1769 14.7345L14.1768 14.7345L14.0708 14.8406ZM10.654 11.4239L10.7601 11.3178L10.6633 11.221L10.5581 11.3085L10.654 11.4239ZM14.9466 13.9648L11.5299 10.5481L11.3178 10.7603L14.7344 14.1769L14.9466 13.9648ZM14.9466 14.9466C15.2178 14.6755 15.2178 14.2359 14.9466 13.9647L14.7345 14.1769C14.8885 14.3309 14.8885 14.5805 14.7345 14.7345L14.9466 14.9466ZM14.4556 15.15C14.6331 15.15 14.8111 15.0822 14.9466 14.9466L14.7345 14.7345C14.6575 14.8115 14.5568 14.85 14.4556 14.85V15.15ZM13.9647 14.9466C14.1002 15.0822 14.2782 15.15 14.4556 15.15V14.85C14.3545 14.85 14.2538 14.8115 14.1769 14.7345L13.9647 14.9466ZM10.548 11.5299L13.9647 14.9466L14.1768 14.7345L10.7601 11.3178L10.548 11.5299ZM6.89241 12.9347C8.35772 12.9347 9.70284 12.41 10.7499 11.5392L10.5581 11.3085C9.56268 12.1363 8.28481 12.6347 6.89241 12.6347V12.9347ZM0.85 6.89258C0.85 10.2244 3.56048 12.9347 6.89241 12.9347V12.6347C3.72615 12.6347 1.15 10.0587 1.15 6.89258H0.85ZM6.89241 0.85C3.56047 0.85 0.85 3.56056 0.85 6.89258H1.15C1.15 3.72624 3.72616 1.15 6.89241 1.15V0.85ZM12.9348 6.89258C12.9348 3.56056 10.2243 0.85 6.89241 0.85V1.15C10.0586 1.15 12.6348 3.72624 12.6348 6.89258H12.9348ZM11.5392 10.7501C12.4099 9.70302 12.9348 8.35797 12.9348 6.89258H12.6348C12.6348 8.28505 12.1363 9.56285 11.3085 10.5583L11.5392 10.7501ZM2.23862 6.89258C2.23862 4.3265 4.32643 2.23862 6.89241 2.23862V1.93862C4.16073 1.93862 1.93862 4.16083 1.93862 6.89258H2.23862ZM6.89241 11.5461C4.32642 11.5461 2.23862 9.45842 2.23862 6.89258H1.93862C1.93862 9.62413 4.16075 11.8461 6.89241 11.8461V11.5461ZM11.5461 6.89258C11.5461 9.45843 9.45833 11.5461 6.89241 11.5461V11.8461C9.62401 11.8461 11.8461 9.62412 11.8461 6.89258H11.5461ZM6.89241 2.23862C9.45832 2.23862 11.5461 4.3265 11.5461 6.89258H11.8461C11.8461 4.16083 9.62403 1.93862 6.89241 1.93862V2.23862Z" fill="#00A8CB"/>
</svg>
