<svg width="20" height="26" viewBox="0 0 20 26" fill="none" xmlns="http://www.w3.org/2000/svg">
<path d="M14.0841 0H0.892295C0.525022 0 0.227295 0.297727 0.227295 0.875455V25C0.227295 25.1568 0.525022 25.4545 0.892295 25.4545H19.1077C19.475 25.4545 19.7727 25.1568 19.7727 25V5.89909C19.7727 5.58273 19.7305 5.48091 19.6559 5.40591L14.3668 0.116818C14.2918 0.0422727 14.19 0 14.0841 0Z" fill="#E9E9E0"/>
<path d="M14.3181 0.0688477V5.45476H19.704L14.3181 0.0688477Z" fill="#D9D7CA"/>
<path fill-rule="evenodd" clip-rule="evenodd" d="M6.14281 15.1474C5.98463 15.1474 5.83281 15.096 5.70326 14.9992C5.23008 14.6442 5.16644 14.2492 5.19644 13.9801C5.27917 13.2401 6.19417 12.4656 7.9169 11.6765C8.60054 10.1783 9.25099 8.33241 9.63872 6.79014C9.18508 5.80286 8.74417 4.52195 9.06554 3.77059C9.17826 3.50741 9.31872 3.30559 9.58099 3.21832C9.68463 3.18377 9.94644 3.14014 10.0428 3.14014C10.2489 3.14014 10.4325 3.37885 10.5712 3.55916L10.5713 3.55918C10.5867 3.57931 10.6017 3.5987 10.616 3.61695L10.619 3.62079C10.7545 3.79336 11.0497 4.16911 10.4464 6.70877C11.0592 7.97423 11.9274 9.26332 12.7592 10.146C13.3551 10.0383 13.8678 9.98332 14.2855 9.98332C14.9974 9.98332 15.4287 10.1492 15.6046 10.491C15.7501 10.7738 15.6905 11.1042 15.4274 11.4729C15.1742 11.827 14.8251 12.0142 14.4183 12.0142C13.8655 12.0142 13.2219 11.6651 12.5042 10.9756C11.2146 11.2451 9.70872 11.726 8.49144 12.2583C8.11144 13.0647 7.74735 13.7142 7.40826 14.1906C6.94235 14.8429 6.54054 15.1474 6.14281 15.1474ZM7.35281 12.8174C6.38144 13.3633 5.98554 13.812 5.9569 14.0647L5.95688 14.0649C5.95232 14.1068 5.94037 14.2167 6.15281 14.3792C6.22054 14.3579 6.61599 14.1774 7.35281 12.8174ZM13.7868 10.9883C13.7217 10.9341 13.6456 10.8708 13.5514 10.7983C13.8569 10.7592 14.1455 10.7492 14.3751 10.7488C14.748 10.7488 14.8399 10.7999 14.8958 10.831L14.9092 10.8383C14.8987 10.871 14.8724 10.932 14.8046 11.027C14.6642 11.2229 14.361 11.2274 14.2546 11.2274C14.074 11.2274 13.9777 11.1473 13.7868 10.9883ZM10.156 7.8065C9.83099 8.93105 9.4019 10.1451 8.94054 11.2447C9.89054 10.876 10.9233 10.5542 11.8933 10.3265C11.2796 9.61377 10.6664 8.72377 10.156 7.8065ZM9.88008 3.96014C9.83554 3.97514 9.27554 4.75877 9.92372 5.42195C10.3551 4.46059 9.89963 3.95377 9.88008 3.96014Z" fill="#CC4B4C"/>
<path d="M19.1077 25.4543H0.892295C0.525022 25.4543 0.227295 25.1566 0.227295 24.7893V17.7271H19.7727V24.7893C19.7727 25.1566 19.475 25.4543 19.1077 25.4543Z" fill="#CC4B4C"/>
<path fill-rule="evenodd" clip-rule="evenodd" d="M4.42896 24.0907H5.17441V22.4376H5.72759C5.96759 22.4376 6.18759 22.4026 6.38623 22.3321C6.58486 22.2617 6.75486 22.1621 6.89577 22.0339C7.03668 21.9057 7.14668 21.7471 7.22532 21.5585C7.30396 21.3698 7.3435 21.1598 7.3435 20.9276C7.3435 20.7076 7.29668 20.5098 7.2035 20.3339C7.11032 20.158 6.98805 20.0076 6.83668 19.8835C6.68532 19.7594 6.51441 19.6662 6.32396 19.6039C6.1335 19.5417 5.94077 19.5107 5.74623 19.5107H4.42896V24.0907ZM5.17486 21.8907V20.0767H5.73396C5.92441 20.0767 6.07805 20.1067 6.19396 20.1667C6.30986 20.2267 6.39986 20.3012 6.46441 20.3903C6.5285 20.4794 6.57077 20.5726 6.59168 20.6698C6.61214 20.7667 6.62259 20.853 6.62259 20.9276C6.62259 21.1139 6.59986 21.2703 6.55441 21.3967C6.50896 21.523 6.44896 21.6212 6.37441 21.6917C6.29986 21.7621 6.21805 21.813 6.12896 21.8439C6.03941 21.8753 5.94941 21.8907 5.8585 21.8907H5.17486Z" fill="white"/>
<path fill-rule="evenodd" clip-rule="evenodd" d="M11.7963 22.6398C11.8772 22.3726 11.9177 22.0503 11.9177 21.6735C11.9177 21.3998 11.87 21.1335 11.7745 20.8744C11.6791 20.6157 11.5354 20.3844 11.3427 20.1817C11.15 19.9789 10.9072 19.8157 10.6154 19.6939C10.3236 19.5721 9.98497 19.5107 9.59952 19.5107H8.21997V24.0907H9.95361C10.0118 24.0907 10.1009 24.0835 10.2209 24.0698C10.3409 24.0553 10.4736 24.0221 10.6186 23.9703C10.7636 23.918 10.9136 23.8407 11.0691 23.7371C11.2245 23.6335 11.3641 23.4917 11.4886 23.3112C11.6132 23.1307 11.7154 22.9071 11.7963 22.6398ZM10.7991 23.0594C10.5754 23.3826 10.2109 23.5439 9.70543 23.5439H8.96588V20.0762H9.40088C9.75724 20.0762 10.0472 20.123 10.2709 20.2162C10.4945 20.3094 10.6718 20.4317 10.8022 20.583C10.9327 20.7344 11.0204 20.903 11.0663 21.0894C11.1118 21.2757 11.1345 21.4644 11.1345 21.6548C11.1345 22.268 11.0227 22.7362 10.7991 23.0594Z" fill="white"/>
<path d="M13.7572 20.0762V21.518H15.6713V22.0276H13.7572V24.0907H12.999V19.5107H15.8636V20.0762H13.7572Z" fill="white"/>
</svg>
