<svg width="9" height="16" viewBox="0 0 9 16" fill="none" xmlns="http://www.w3.org/2000/svg">
<path fill-rule="evenodd" clip-rule="evenodd" d="M7.28654 0H1.74318C0.800753 0 0 0.749287 0 1.66798V14.3339C0 15.2526 0.78381 16 1.72623 16L7.27872 15.9942C8.22101 15.9942 8.99192 15.2466 8.99192 14.3278L9 1.66709C8.99987 0.745093 8.23274 0 7.28654 0ZM3.71404 1.00002H5.32232C5.4636 1.00002 5.57868 1.11186 5.57868 1.25C5.57868 1.38814 5.4636 1.49997 5.32232 1.49997H3.71404C3.57237 1.49997 3.45768 1.38814 3.45768 1.25C3.45768 1.11186 3.57237 1.00002 3.71404 1.00002ZM3.11048 1.07958C3.0156 0.98579 2.84265 0.987061 2.74764 1.07958C2.70033 1.12584 2.67322 1.19078 2.67335 1.25711C2.67335 1.32218 2.70033 1.38712 2.74764 1.43338C2.79651 1.47977 2.86181 1.50709 2.92971 1.50709C2.99631 1.50709 3.06317 1.47977 3.11048 1.43338C3.15805 1.38699 3.1862 1.32218 3.1862 1.25711C3.1862 1.19078 3.15805 1.12584 3.11048 1.07958ZM4.46644 15.5045C4.04339 15.5045 3.69931 15.1687 3.69931 14.7564C3.69931 14.3438 4.04339 14.0082 4.46644 14.0082C4.88949 14.0082 5.23357 14.3438 5.23357 14.7564C5.23357 15.1687 4.88936 15.5045 4.46644 15.5045ZM0.897328 13.4998H8.2042V2.37507H0.897328V13.4998Z" fill="#00A8CB"/>
</svg>
