<svg width="13" height="18" viewBox="0 0 13 18" fill="none" xmlns="http://www.w3.org/2000/svg">
<path fill-rule="evenodd" clip-rule="evenodd" d="M0 6.54545C0 2.93639 2.916 0 6.5 0C10.084 0 13 2.93639 13 6.54545C13 7.91396 12.585 9.22439 11.7997 10.3354L11.7937 10.3435L11.793 10.3452C11.3447 10.9473 10.5662 12.0068 9.72156 13.1563C8.72996 14.5059 7.64718 15.9795 6.90033 16.983C6.72933 17.2126 6.383 17.2777 6.143 17.0189C6.13701 17.0126 6.13001 17.0078 6.12303 17.0031C6.11447 16.9974 6.10594 16.9917 6.09933 16.983L1.29667 10.4694C0.448 9.3308 0 7.97371 0 6.54545ZM2.07639 6.50699C2.07639 8.97943 4.08293 11 6.53819 11C8.99346 11 11 8.97943 11 6.50699C11 4.03456 8.99346 2.01399 6.53819 2.01399C4.08293 2.01399 2.07639 4.03456 2.07639 6.50699Z" fill="#00A8CB"/>
</svg>
