<svg width="14" height="14" viewBox="0 0 14 14" fill="none" xmlns="http://www.w3.org/2000/svg">
<path d="M13.0629 0.958406C12.4508 0.345647 11.6418 0 10.7835 0C10.7797 0 10.7759 0 10.7722 0C9.91246 0 9.10049 0.35216 8.48576 0.967541C8.23829 1.21528 8.23829 1.62559 8.48576 1.87334C8.7332 2.12108 9.13446 2.12108 9.38194 1.87334C10.1653 1.08917 11.3886 1.08511 12.1668 1.8642C12.932 2.63031 12.9205 3.88835 12.141 4.66867L4.66623 12.1514C3.89135 12.9271 2.62852 12.9251 1.85115 12.1469C1.07382 11.3688 1.07179 10.1045 1.84667 9.32888L2.20171 8.97346L5.07611 6.096L6.85311 4.3171C7.16819 4.00178 7.73522 4.14578 8.06719 4.4781L8.07188 4.4828C8.18362 4.5947 8.31644 4.77499 8.3145 4.99867C8.31293 5.17828 8.22502 5.36043 8.06017 5.52545L4.28509 9.30456C4.03761 9.5523 4.03761 9.95395 4.28509 10.2017C4.40883 10.3256 4.57101 10.3875 4.73315 10.3875C4.89534 10.3875 5.05752 10.3256 5.18122 10.2017L8.9563 6.42257C9.35524 6.02322 9.57741 5.52139 9.5818 5.00958C9.58624 4.49206 9.36829 3.98634 8.96801 3.58567L8.96332 3.58098C8.09009 2.70682 6.74141 2.63458 5.9569 3.41997L4.17989 5.19887L1.3055 8.07634L0.950459 8.43175C-0.318578 9.7021 -0.31655 11.7712 0.954937 13.044C1.5915 13.6813 2.42735 14 3.26277 14C4.09595 14 4.92871 13.6807 5.56236 13.0464L13.0372 5.56144C14.3108 4.28648 14.3223 2.21915 13.0629 0.958406Z" fill="#00A8CB"/>
</svg>
