<svg width="5" height="9" viewBox="0 0 5 9" fill="none" xmlns="http://www.w3.org/2000/svg">
<path d="M4.35643 7.31876C4.02344 7.31876 3.7535 7.58319 3.7535 7.90938C3.7535 8.23557 4.02344 8.5 4.35643 8.5C4.68941 8.5 4.95935 8.23557 4.95935 7.90938C4.95935 7.58319 4.68941 7.31876 4.35643 7.31876Z" fill="white"/>
<path d="M3.1627 6.12565C2.82972 6.12565 2.55978 6.39008 2.55978 6.71627C2.55978 7.04246 2.82972 7.30688 3.1627 7.30688C3.49569 7.30688 3.76562 7.04246 3.76562 6.71627C3.76562 6.39008 3.49569 6.12565 3.1627 6.12565Z" fill="white"/>
<path d="M3.1627 1.42301C2.82972 1.42301 2.55978 1.68744 2.55978 2.01363C2.55978 2.33982 2.82972 2.60425 3.1627 2.60425C3.49569 2.60425 3.76562 2.33982 3.76562 2.01363C3.76562 1.68744 3.49569 1.42301 3.1627 1.42301Z" fill="white"/>
<path d="M1.91881 4.95621C1.58582 4.95621 1.31588 5.22064 1.31588 5.54683C1.31588 5.87302 1.58582 6.13745 1.91881 6.13745C2.25179 6.13745 2.52173 5.87302 2.52173 5.54683C2.52173 5.22064 2.25179 4.95621 1.91881 4.95621Z" fill="white"/>
<path d="M1.91876 2.59383C1.58576 2.59383 1.3158 2.85828 1.3158 3.18449C1.3158 3.5107 1.58576 3.77515 1.91876 3.77515C2.25177 3.77515 2.52173 3.5107 2.52173 3.18449C2.52173 2.85828 2.25177 2.59383 1.91876 2.59383Z" fill="white"/>
<path d="M4.35639 0.204425C4.02338 0.204425 3.75342 0.468872 3.75342 0.795084C3.75342 1.1213 4.02338 1.38574 4.35639 1.38574C4.68939 1.38574 4.95935 1.1213 4.95935 0.795084C4.95935 0.468872 4.68939 0.204425 4.35639 0.204425Z" fill="white"/>
<path d="M0.723615 3.78702C0.390629 3.78702 0.120691 4.05145 0.120691 4.37764C0.120691 4.70383 0.390629 4.96826 0.723615 4.96826C1.0566 4.96826 1.32654 4.70383 1.32654 4.37764C1.32654 4.05145 1.0566 3.78702 0.723615 3.78702Z" fill="white"/>
</svg>
