<svg width="21" height="24" viewBox="0 0 21 24" fill="none" xmlns="http://www.w3.org/2000/svg">
<path d="M1.59261 2.36248C2.25858 2.36248 2.79846 1.83362 2.79846 1.18124C2.79846 0.528858 2.25858 0 1.59261 0C0.92664 0 0.386765 0.528858 0.386765 1.18124C0.386765 1.83362 0.92664 2.36248 1.59261 2.36248Z" fill="#00A8CB"/>
<path d="M5.24683 5.94207C5.9128 5.94207 6.45268 5.41321 6.45268 4.76083C6.45268 4.10845 5.9128 3.57959 5.24683 3.57959C4.58086 3.57959 4.04099 4.10845 4.04099 4.76083C4.04099 5.41321 4.58086 5.94207 5.24683 5.94207Z" fill="#00A8CB"/>
<path d="M5.24683 2.36248C5.9128 2.36248 6.45268 1.83362 6.45268 1.18124C6.45268 0.528858 5.9128 0 5.24683 0C4.58086 0 4.04099 0.528858 4.04099 1.18124C4.04099 1.83362 4.58086 2.36248 5.24683 2.36248Z" fill="#00A8CB"/>
<path d="M8.82786 5.94207C9.49383 5.94207 10.0337 5.41321 10.0337 4.76083C10.0337 4.10845 9.49383 3.57959 8.82786 3.57959C8.16189 3.57959 7.62201 4.10845 7.62201 4.76083C7.62201 5.41321 8.16189 5.94207 8.82786 5.94207Z" fill="#00A8CB"/>
<path d="M8.82786 9.44988C9.49383 9.44988 10.0337 8.92102 10.0337 8.26864C10.0337 7.61626 9.49383 7.0874 8.82786 7.0874C8.16189 7.0874 7.62201 7.61626 7.62201 8.26864C7.62201 8.92102 8.16189 9.44988 8.82786 9.44988Z" fill="#00A8CB"/>
<path d="M8.82786 2.36248C9.49383 2.36248 10.0337 1.83362 10.0337 1.18124C10.0337 0.528858 9.49383 0 8.82786 0C8.16189 0 7.62201 0.528858 7.62201 1.18124C7.62201 1.83362 8.16189 2.36248 8.82786 2.36248Z" fill="#00A8CB"/>
<path d="M12.4089 5.94207C13.0749 5.94207 13.6147 5.41321 13.6147 4.76083C13.6147 4.10845 13.0749 3.57959 12.4089 3.57959C11.7429 3.57959 11.203 4.10845 11.203 4.76083C11.203 5.41321 11.7429 5.94207 12.4089 5.94207Z" fill="#00A8CB"/>
<path d="M12.4089 9.44988C13.0749 9.44988 13.6147 8.92102 13.6147 8.26864C13.6147 7.61626 13.0749 7.0874 12.4089 7.0874C11.7429 7.0874 11.203 7.61626 11.203 8.26864C11.203 8.92102 11.7429 9.44988 12.4089 9.44988Z" fill="#00A8CB"/>
<path d="M12.4089 12.9579C13.0749 12.9579 13.6147 12.4291 13.6147 11.7767C13.6147 11.1243 13.0749 10.5955 12.4089 10.5955C11.7429 10.5955 11.203 11.1243 11.203 11.7767C11.203 12.4291 11.7429 12.9579 12.4089 12.9579Z" fill="#00A8CB"/>
<path d="M8.82786 16.5374C9.49388 16.5374 10.0338 16.0085 10.0338 15.3561C10.0338 14.7037 9.49388 14.1748 8.82786 14.1748C8.16185 14.1748 7.62193 14.7037 7.62193 15.3561C7.62193 16.0085 8.16185 16.5374 8.82786 16.5374Z" fill="#00A8CB"/>
<path d="M12.4089 16.5374C13.0749 16.5374 13.6148 16.0085 13.6148 15.3561C13.6148 14.7037 13.0749 14.1748 12.4089 14.1748C11.7429 14.1748 11.203 14.7037 11.203 15.3561C11.203 16.0085 11.7429 16.5374 12.4089 16.5374Z" fill="#00A8CB"/>
<path d="M5.24683 20.0497C5.9128 20.0497 6.45268 19.5209 6.45268 18.8685C6.45268 18.2161 5.9128 17.6873 5.24683 17.6873C4.58086 17.6873 4.04099 18.2161 4.04099 18.8685C4.04099 19.5209 4.58086 20.0497 5.24683 20.0497Z" fill="#00A8CB"/>
<path d="M8.82786 20.0497C9.49383 20.0497 10.0337 19.5209 10.0337 18.8685C10.0337 18.2161 9.49383 17.6873 8.82786 17.6873C8.16189 17.6873 7.62201 18.2161 7.62201 18.8685C7.62201 19.5209 8.16189 20.0497 8.82786 20.0497Z" fill="#00A8CB"/>
<path d="M12.4089 20.0497C13.0749 20.0497 13.6147 19.5209 13.6147 18.8685C13.6147 18.2161 13.0749 17.6873 12.4089 17.6873C11.7429 17.6873 11.203 18.2161 11.203 18.8685C11.203 19.5209 11.7429 20.0497 12.4089 20.0497Z" fill="#00A8CB"/>
<path d="M16.1407 9.44988C16.8066 9.44988 17.3465 8.92102 17.3465 8.26864C17.3465 7.61626 16.8066 7.0874 16.1407 7.0874C15.4747 7.0874 14.9348 7.61626 14.9348 8.26864C14.9348 8.92102 15.4747 9.44988 16.1407 9.44988Z" fill="#00A8CB"/>
<path d="M16.1407 12.9579C16.8066 12.9579 17.3465 12.4291 17.3465 11.7767C17.3465 11.1243 16.8066 10.5955 16.1407 10.5955C15.4747 10.5955 14.9348 11.1243 14.9348 11.7767C14.9348 12.4291 15.4747 12.9579 16.1407 12.9579Z" fill="#00A8CB"/>
<path d="M16.1407 16.5374C16.8067 16.5374 17.3466 16.0085 17.3466 15.3561C17.3466 14.7037 16.8067 14.1748 16.1407 14.1748C15.4747 14.1748 14.9348 14.7037 14.9348 15.3561C14.9348 16.0085 15.4747 16.5374 16.1407 16.5374Z" fill="#00A8CB"/>
<path d="M1.59262 23.7054C2.25863 23.7054 2.79854 23.1765 2.79854 22.5241C2.79854 21.8717 2.25863 21.3428 1.59262 21.3428C0.926601 21.3428 0.386688 21.8717 0.386688 22.5241C0.386688 23.1765 0.926601 23.7054 1.59262 23.7054Z" fill="#00A8CB"/>
<path d="M5.24682 23.7054C5.91284 23.7054 6.45275 23.1765 6.45275 22.5241C6.45275 21.8717 5.91284 21.3428 5.24682 21.3428C4.58081 21.3428 4.04089 21.8717 4.04089 22.5241C4.04089 23.1765 4.58081 23.7054 5.24682 23.7054Z" fill="#00A8CB"/>
<path d="M8.82786 23.7054C9.49388 23.7054 10.0338 23.1765 10.0338 22.5241C10.0338 21.8717 9.49388 21.3428 8.82786 21.3428C8.16185 21.3428 7.62193 21.8717 7.62193 22.5241C7.62193 23.1765 8.16185 23.7054 8.82786 23.7054Z" fill="#00A8CB"/>
<path d="M19.7262 12.9579C20.3921 12.9579 20.932 12.4291 20.932 11.7767C20.932 11.1243 20.3921 10.5955 19.7262 10.5955C19.0602 10.5955 18.5203 11.1243 18.5203 11.7767C18.5203 12.4291 19.0602 12.9579 19.7262 12.9579Z" fill="#00A8CB"/>
</svg>
