<svg width="21" height="24" viewBox="0 0 21 24" fill="none" xmlns="http://www.w3.org/2000/svg">
<path d="M19.4074 2.36248C18.7415 2.36248 18.2016 1.83362 18.2016 1.18124C18.2016 0.528858 18.7415 0 19.4074 0C20.0734 0 20.6133 0.528858 20.6133 1.18124C20.6133 1.83362 20.0734 2.36248 19.4074 2.36248Z" fill="#00A8CB"/>
<path d="M15.7531 5.94207C15.0872 5.94207 14.5473 5.41321 14.5473 4.76083C14.5473 4.10845 15.0872 3.57959 15.7531 3.57959C16.4191 3.57959 16.959 4.10845 16.959 4.76083C16.959 5.41321 16.4191 5.94207 15.7531 5.94207Z" fill="#00A8CB"/>
<path d="M15.7531 2.36248C15.0872 2.36248 14.5473 1.83362 14.5473 1.18124C14.5473 0.528858 15.0872 0 15.7531 0C16.4191 0 16.959 0.528858 16.959 1.18124C16.959 1.83362 16.4191 2.36248 15.7531 2.36248Z" fill="#00A8CB"/>
<path d="M12.1721 5.94207C11.5061 5.94207 10.9662 5.41321 10.9662 4.76083C10.9662 4.10845 11.5061 3.57959 12.1721 3.57959C12.8381 3.57959 13.3779 4.10845 13.3779 4.76083C13.3779 5.41321 12.8381 5.94207 12.1721 5.94207Z" fill="#00A8CB"/>
<path d="M12.1721 9.44988C11.5061 9.44988 10.9662 8.92102 10.9662 8.26864C10.9662 7.61626 11.5061 7.0874 12.1721 7.0874C12.8381 7.0874 13.3779 7.61626 13.3779 8.26864C13.3779 8.92102 12.8381 9.44988 12.1721 9.44988Z" fill="#00A8CB"/>
<path d="M12.1721 2.36248C11.5061 2.36248 10.9662 1.83362 10.9662 1.18124C10.9662 0.528858 11.5061 0 12.1721 0C12.8381 0 13.3779 0.528858 13.3779 1.18124C13.3779 1.83362 12.8381 2.36248 12.1721 2.36248Z" fill="#00A8CB"/>
<path d="M8.59115 5.94207C7.92518 5.94207 7.3853 5.41321 7.3853 4.76083C7.3853 4.10845 7.92518 3.57959 8.59115 3.57959C9.25712 3.57959 9.797 4.10845 9.797 4.76083C9.797 5.41321 9.25712 5.94207 8.59115 5.94207Z" fill="#00A8CB"/>
<path d="M8.59115 9.44988C7.92518 9.44988 7.3853 8.92102 7.3853 8.26864C7.3853 7.61626 7.92518 7.0874 8.59115 7.0874C9.25712 7.0874 9.797 7.61626 9.797 8.26864C9.797 8.92102 9.25712 9.44988 8.59115 9.44988Z" fill="#00A8CB"/>
<path d="M8.59115 12.9579C7.92518 12.9579 7.3853 12.4291 7.3853 11.7767C7.3853 11.1243 7.92518 10.5955 8.59115 10.5955C9.25712 10.5955 9.797 11.1243 9.797 11.7767C9.797 12.4291 9.25712 12.9579 8.59115 12.9579Z" fill="#00A8CB"/>
<path d="M12.1721 16.5374C11.5061 16.5374 10.9662 16.0085 10.9662 15.3561C10.9662 14.7037 11.5061 14.1748 12.1721 14.1748C12.8381 14.1748 13.3781 14.7037 13.3781 15.3561C13.3781 16.0085 12.8381 16.5374 12.1721 16.5374Z" fill="#00A8CB"/>
<path d="M8.59107 16.5374C7.92505 16.5374 7.38514 16.0085 7.38514 15.3561C7.38514 14.7037 7.92505 14.1748 8.59107 14.1748C9.25708 14.1748 9.797 14.7037 9.797 15.3561C9.797 16.0085 9.25708 16.5374 8.59107 16.5374Z" fill="#00A8CB"/>
<path d="M15.7531 20.0497C15.0872 20.0497 14.5473 19.5209 14.5473 18.8685C14.5473 18.2161 15.0872 17.6873 15.7531 17.6873C16.4191 17.6873 16.959 18.2161 16.959 18.8685C16.959 19.5209 16.4191 20.0497 15.7531 20.0497Z" fill="#00A8CB"/>
<path d="M12.1721 20.0497C11.5061 20.0497 10.9662 19.5209 10.9662 18.8685C10.9662 18.2161 11.5061 17.6873 12.1721 17.6873C12.8381 17.6873 13.3779 18.2161 13.3779 18.8685C13.3779 19.5209 12.8381 20.0497 12.1721 20.0497Z" fill="#00A8CB"/>
<path d="M8.59115 20.0497C7.92518 20.0497 7.3853 19.5209 7.3853 18.8685C7.3853 18.2161 7.92518 17.6873 8.59115 17.6873C9.25712 17.6873 9.797 18.2161 9.797 18.8685C9.797 19.5209 9.25712 20.0497 8.59115 20.0497Z" fill="#00A8CB"/>
<path d="M4.85934 9.44988C4.19337 9.44988 3.65349 8.92102 3.65349 8.26864C3.65349 7.61626 4.19337 7.0874 4.85934 7.0874C5.52531 7.0874 6.06519 7.61626 6.06519 8.26864C6.06519 8.92102 5.52531 9.44988 4.85934 9.44988Z" fill="#00A8CB"/>
<path d="M4.85934 12.9579C4.19337 12.9579 3.65349 12.4291 3.65349 11.7767C3.65349 11.1243 4.19337 10.5955 4.85934 10.5955C5.52531 10.5955 6.06519 11.1243 6.06519 11.7767C6.06519 12.4291 5.52531 12.9579 4.85934 12.9579Z" fill="#00A8CB"/>
<path d="M4.85938 16.5374C4.19336 16.5374 3.65345 16.0085 3.65345 15.3561C3.65345 14.7037 4.19336 14.1748 4.85938 14.1748C5.5254 14.1748 6.06531 14.7037 6.06531 15.3561C6.06531 16.0085 5.5254 16.5374 4.85938 16.5374Z" fill="#00A8CB"/>
<path d="M19.4074 23.7054C18.7413 23.7054 18.2014 23.1765 18.2014 22.5241C18.2014 21.8717 18.7413 21.3428 19.4074 21.3428C20.0734 21.3428 20.6133 21.8717 20.6133 22.5241C20.6133 23.1765 20.0734 23.7054 19.4074 23.7054Z" fill="#00A8CB"/>
<path d="M15.7532 23.7054C15.0872 23.7054 14.5473 23.1765 14.5473 22.5241C14.5473 21.8717 15.0872 21.3428 15.7532 21.3428C16.4192 21.3428 16.9591 21.8717 16.9591 22.5241C16.9591 23.1765 16.4192 23.7054 15.7532 23.7054Z" fill="#00A8CB"/>
<path d="M12.1721 23.7054C11.5061 23.7054 10.9662 23.1765 10.9662 22.5241C10.9662 21.8717 11.5061 21.3428 12.1721 21.3428C12.8381 21.3428 13.3781 21.8717 13.3781 22.5241C13.3781 23.1765 12.8381 23.7054 12.1721 23.7054Z" fill="#00A8CB"/>
<path d="M1.27377 12.9579C0.607797 12.9579 0.0679209 12.4291 0.0679209 11.7767C0.0679209 11.1243 0.607797 10.5955 1.27377 10.5955C1.93974 10.5955 2.47961 11.1243 2.47961 11.7767C2.47961 12.4291 1.93974 12.9579 1.27377 12.9579Z" fill="#00A8CB"/>
</svg>
