<svg width="25" height="27" viewBox="0 0 25 27" fill="none" xmlns="http://www.w3.org/2000/svg">
<mask id="mask0" mask-type="alpha" maskUnits="userSpaceOnUse" x="0" y="0" width="25" height="26">
<path fill-rule="evenodd" clip-rule="evenodd" d="M0 25.2522V0.347168L24.9051 0.347168V25.2522H0H0Z" fill="white"/>
</mask>
<g mask="url(#mask0)">
<path fill-rule="evenodd" clip-rule="evenodd" d="M12.4527 25.2524C5.57523 25.2524 -0.00012207 19.677 -0.00012207 12.7996C-0.00012207 5.92252 5.57523 0.347168 12.4527 0.347168C19.3301 0.347168 24.9051 5.92252 24.9051 12.7996C24.9051 19.677 19.3301 25.2524 12.4527 25.2524Z" fill="#29A9E1"/>
</g>
<path fill-rule="evenodd" clip-rule="evenodd" d="M5.81775 17.9681C7.02261 18.7407 8.45351 19.1914 9.99101 19.1914C15.0455 19.1914 17.9007 14.9223 17.7289 11.0931C18.2605 10.7095 18.7223 10.2303 19.0872 9.68376C18.599 9.90008 18.074 10.047 17.5237 10.1122C18.0858 9.77612 18.5174 9.24244 18.7205 8.60633C18.1945 8.91813 17.6115 9.14487 16.9921 9.26709C16.4952 8.73792 15.7879 8.40771 15.0046 8.40771C13.2476 8.40771 11.9563 10.0473 12.3528 11.7501C10.0903 11.6369 8.08407 10.5529 6.74171 8.90563C6.02851 10.1296 6.37192 11.7306 7.58442 12.5404C7.13789 12.5265 6.7174 12.4035 6.35074 12.1997C6.32157 13.4615 7.22504 14.6407 8.53442 14.9039C8.15108 15.0081 7.73129 15.0317 7.3056 14.9504C7.65108 16.032 8.65664 16.8188 9.8483 16.841C8.70386 17.7383 7.26219 18.139 5.81775 17.9681Z" fill="white"/>
</svg>
