<svg width="14" height="14" viewBox="0 0 14 14" fill="none" xmlns="http://www.w3.org/2000/svg">
<path fill-rule="evenodd" clip-rule="evenodd" d="M1.29596 12.9647C1.5498 13.2185 1.99751 13.1823 2.29595 12.8839L13.1445 2.0353C13.443 1.73686 13.4791 1.28914 13.2253 1.0353C12.9715 0.781462 12.5238 0.817619 12.2253 1.11606L1.37671 11.9647C1.07827 12.2631 1.04211 12.7108 1.29596 12.9647Z" fill="white"/>
<path fill-rule="evenodd" clip-rule="evenodd" d="M13.2253 12.9647C12.9715 13.2185 12.5238 13.1823 12.2253 12.8839L1.37672 2.0353C1.07828 1.73686 1.04212 1.28914 1.29597 1.0353C1.54981 0.781462 1.99752 0.817619 2.29596 1.11606L13.1446 11.9647C13.443 12.2631 13.4792 12.7108 13.2253 12.9647Z" fill="white"/>
</svg>
